<svg width="80" height="80" viewBox="0 0 80 80" fill="none" xmlns="http://www.w3.org/2000/svg">
<circle cx="40" cy="40" r="39" stroke="#212463" stroke-width="2"/>
<g clip-path="url(#clip0)">
<path d="M37.9057 39.4633C37.7554 39.6657 37.6904 39.9195 37.7248 40.1696C37.7593 40.4197 37.8903 40.6462 38.0897 40.8L43.8546 45.2289C44.0553 44.5941 44.3055 43.9762 44.6028 43.3809L39.2366 39.2477C39.0313 39.1 38.7762 39.0397 38.5269 39.0801C38.2776 39.1205 38.0543 39.2583 37.9057 39.4633Z" fill="#212463"/>
<path d="M16.8514 49.189L27.86 40.7994C27.96 40.7242 28.0443 40.6298 28.1078 40.5217C28.1713 40.4136 28.2128 40.2939 28.2299 40.1696C28.247 40.0453 28.2394 39.9188 28.2075 39.7974C28.1755 39.6761 28.12 39.5623 28.044 39.4627C27.9736 39.3637 27.8841 39.2801 27.7807 39.2169C27.6773 39.1537 27.5622 39.1122 27.4424 39.095C27.3226 39.0777 27.2005 39.085 27.0836 39.1165C26.9667 39.1479 26.8574 39.2028 26.7622 39.2779L14.8828 48.3143V27.5804L32.3554 38.7974C32.5219 38.8985 32.7127 38.9519 32.9073 38.9519C33.1019 38.9519 33.2928 38.8985 33.4593 38.7974L50.846 27.6482V37.3067C51.4683 37.0217 52.1123 36.7868 52.7717 36.6045V25.8927C52.7606 25.6443 52.6541 25.4099 52.4745 25.2387C52.295 25.0676 52.0564 24.973 51.8089 24.9749H13.9629C13.8392 24.9699 13.7158 24.9898 13.6 25.0336C13.4842 25.0773 13.3783 25.144 13.2885 25.2295C13.1987 25.3151 13.127 25.4179 13.0774 25.5317C13.0279 25.6456 13.0015 25.7684 13 25.8927V50.1315C13.0015 50.2558 13.0279 50.3784 13.0774 50.4923C13.127 50.6062 13.1987 50.709 13.2885 50.7945C13.3783 50.8801 13.4842 50.9467 13.6 50.9905C13.7158 51.0342 13.8392 51.0542 13.9629 51.0493H43.4007C43.303 50.4257 43.2517 49.7956 43.2474 49.1643L16.8514 49.189ZM48.5523 26.8844L32.8889 36.9495L17.3359 26.9028L48.5523 26.8844Z" fill="#212463"/>
<path d="M49.6932 49.1279C49.5988 49.008 49.5522 48.8571 49.5624 48.7045C49.5726 48.552 49.6389 48.4087 49.7484 48.3025C49.8715 48.2115 50.0239 48.1698 50.176 48.1858C50.328 48.2017 50.4686 48.2741 50.5702 48.3887L53.8881 52.2325L61.9283 44.8407C61.9856 44.7894 62.0524 44.7501 62.125 44.7251C62.1975 44.7001 62.2743 44.6898 62.3508 44.6949C62.4274 44.7001 62.5021 44.7205 62.5707 44.7551C62.6392 44.7896 62.7003 44.8376 62.7501 44.8961C62.8446 45.0161 62.8912 45.167 62.881 45.3196C62.8708 45.4721 62.8045 45.6154 62.6949 45.7215L54.1948 53.489C54.1384 53.5425 54.0715 53.5835 53.9984 53.6096C53.9253 53.6356 53.8477 53.646 53.7703 53.6403C53.693 53.6345 53.6178 53.6125 53.5493 53.5759C53.4809 53.5393 53.4208 53.4887 53.373 53.4275L49.6932 49.1279ZM56.237 38.6069C59.0253 38.6111 61.6999 39.7175 63.6823 41.6868C65.1592 43.1691 66.1652 45.058 66.573 47.1146C66.9809 49.1712 66.7723 51.3032 65.9737 53.2407C65.175 55.1782 63.8222 56.8343 62.0863 57.9995C60.3505 59.1647 58.3095 59.7866 56.2217 59.7866C54.1339 59.7866 52.0929 59.1647 50.357 57.9995C48.6212 56.8343 47.2684 55.1782 46.4697 53.2407C45.6711 51.3032 45.4625 49.1712 45.8703 47.1146C46.2782 45.058 47.2842 43.1691 48.761 41.6868C50.7521 39.7117 53.4385 38.605 56.237 38.6069ZM62.8667 42.5308C61.1085 40.7644 58.7238 39.7717 56.237 39.7711C53.7924 39.834 51.4688 40.8535 49.7619 42.6124C48.055 44.3712 47.0996 46.7302 47.0996 49.1864C47.0996 51.6426 48.055 54.0016 49.7619 55.7605C51.4688 57.5193 53.7924 58.5389 56.237 58.6017C58.0914 58.603 59.9045 58.0517 61.4468 57.0175C62.989 55.9834 64.1912 54.513 64.901 52.7923C65.6108 51.0716 65.7964 49.1781 65.4343 47.3514C65.0721 45.5248 64.1786 43.8471 62.8667 42.5308Z" fill="#212463" stroke="#212463" stroke-width="0.75" stroke-miterlimit="10"/>
</g>
<defs>
<clipPath id="clip0">
<rect width="54" height="35" fill="white" transform="translate(13 25)"/>
</clipPath>
</defs>
</svg>
