<svg width="80" height="80" viewBox="0 0 80 80" fill="none" xmlns="http://www.w3.org/2000/svg">
<circle cx="40" cy="40" r="39" stroke="#212463" stroke-width="2"/>
<g clip-path="url(#clip0)">
<path fill-rule="evenodd" clip-rule="evenodd" d="M37.9293 20C39.9937 20.003 41.9955 20.7217 43.6045 22.0377C45.2136 23.3537 46.3337 25.1884 46.7801 27.2391C47.2266 29.2898 46.9728 31.4341 46.0605 33.3183C45.1482 35.2025 43.6319 36.7141 41.7618 37.6038C42.9461 37.9252 44.0874 38.3924 45.1605 38.995C45.2808 39.0556 45.3878 39.1403 45.475 39.2441C45.5622 39.3478 45.6278 39.4685 45.6678 39.5988C45.7079 39.7291 45.7216 39.8663 45.7081 40.0021C45.6945 40.138 45.6541 40.2696 45.5891 40.3891C45.5242 40.5085 45.4361 40.6134 45.3302 40.6973C45.2243 40.7811 45.1028 40.8423 44.973 40.8771C44.8433 40.9118 44.7079 40.9194 44.5752 40.8994C44.4424 40.8794 44.315 40.8323 44.2007 40.7608C43.2488 40.2218 42.2324 39.8103 41.1767 39.5368C40.1247 39.2595 39.0423 39.1202 37.9555 39.1221C34.5223 39.1327 31.2327 40.525 28.805 42.9949C26.3773 45.4649 25.0089 48.8119 24.9985 52.305V54.1309C24.997 54.2952 25.0283 54.4582 25.0905 54.61C25.1526 54.7617 25.2443 54.899 25.36 55.0137C25.4847 55.1361 25.632 55.2322 25.7933 55.2964C25.9546 55.3607 26.1269 55.392 26.3001 55.3883H38.7444C38.8874 55.3645 39.0338 55.3725 39.1734 55.412C39.313 55.4514 39.4425 55.5213 39.5529 55.6167C39.6633 55.7122 39.752 55.8309 39.8129 55.9647C39.8737 56.0985 39.9052 56.2441 39.9052 56.3916C39.9052 56.539 39.8737 56.6846 39.8129 56.8184C39.752 56.9522 39.6633 57.0709 39.5529 57.1664C39.4425 57.2618 39.313 57.3316 39.1734 57.3711C39.0338 57.4105 38.8874 57.4186 38.7444 57.3948H26.2935C25.4261 57.3971 24.5918 57.0565 23.9664 56.445C23.6594 56.142 23.4155 55.7792 23.2495 55.3781C23.0835 54.977 22.9986 54.546 23 54.1108V52.2849C23.01 48.9322 24.1029 45.6758 26.1103 43.017C28.1178 40.3582 30.9285 38.4445 34.1098 37.5704C33.1534 37.1124 32.2817 36.4902 31.5329 35.7311C30.2769 34.4389 29.4236 32.7984 29.0796 31.0151C28.7357 29.2318 28.9164 27.3848 29.5992 25.7055C30.282 24.0262 31.4366 22.5892 32.9183 21.5743C34.4 20.5594 36.1431 20.0118 37.9293 20ZM44.1284 51.2816H47.3759V54.5789C47.4142 54.8169 47.5344 55.0333 47.715 55.1894C47.8957 55.3455 48.125 55.4312 48.362 55.4312C48.599 55.4312 48.8283 55.3455 49.0089 55.1894C49.1895 55.0333 49.3097 54.8169 49.348 54.5789V51.2749H52.589C52.728 51.2913 52.8689 51.2775 53.0024 51.2346C53.1358 51.1916 53.2589 51.1205 53.3634 51.0257C53.4679 50.931 53.5515 50.8148 53.6088 50.6849C53.6661 50.5549 53.6957 50.4141 53.6957 50.2717C53.6957 50.1292 53.6661 49.9884 53.6088 49.8585C53.5515 49.7285 53.4679 49.6123 53.3634 49.5176C53.2589 49.4228 53.1358 49.3517 53.0024 49.3087C52.8689 49.2658 52.728 49.252 52.589 49.2684L49.3415 49.3019V45.9978C49.3576 45.8563 49.344 45.7129 49.3018 45.5771C49.2596 45.4413 49.1897 45.3162 49.0965 45.2099C49.0034 45.1036 48.8892 45.0184 48.7615 44.9601C48.6338 44.9019 48.4954 44.8718 48.3554 44.8718C48.2154 44.8718 48.077 44.9019 47.9493 44.9601C47.8215 45.0184 47.7074 45.1036 47.6143 45.2099C47.5211 45.3162 47.4512 45.4413 47.4089 45.5771C47.3667 45.7129 47.3532 45.8563 47.3693 45.9978L47.4022 49.3019H44.1547C43.9208 49.3409 43.7082 49.4631 43.5547 49.6469C43.4013 49.8307 43.317 50.064 43.317 50.3051C43.317 50.5463 43.4013 50.7795 43.5547 50.9633C43.7082 51.1471 43.9208 51.2694 44.1547 51.3084L44.1284 51.2816ZM48.3554 41.4563C46.3618 41.4578 44.4303 42.1625 42.8901 43.4503C41.3498 44.738 40.296 46.5293 39.9081 48.5189C39.5202 50.5085 39.8223 52.5734 40.7629 54.3618C41.7035 56.1502 43.2244 57.5515 45.0665 58.327C46.9086 59.1026 48.9581 59.2044 50.8657 58.6151C52.7733 58.0258 54.4211 56.7818 55.5284 55.0951C56.6357 53.4084 57.1341 51.3833 56.9385 49.3647C56.7429 47.3462 55.8656 45.459 54.4559 44.0247C53.6573 43.2064 52.7066 42.5578 51.6593 42.1169C50.6119 41.676 49.4888 41.4514 48.3554 41.4563ZM53.0491 45.4694C51.9575 44.3726 50.526 43.6947 48.9983 43.5512C47.4706 43.4076 45.9412 43.8074 44.6707 44.6822C43.4001 45.5571 42.4669 46.853 42.03 48.3493C41.5931 49.8456 41.6795 51.4496 42.2745 52.8884C42.8695 54.3271 43.9363 55.5116 45.2932 56.2399C46.6501 56.9683 48.2132 57.1956 49.7164 56.8831C51.2195 56.5705 52.5697 55.7376 53.5369 54.526C54.5042 53.3144 55.0288 51.7991 55.0213 50.2382C55.017 49.3504 54.8406 48.4722 54.5022 47.6539C54.1638 46.8355 53.67 46.0932 53.0491 45.4694ZM42.9385 24.1535C41.7802 22.9727 40.2553 22.2372 38.6237 22.0722C36.992 21.9071 35.3546 22.3228 33.9905 23.2485C32.6264 24.1742 31.62 25.5525 31.1428 27.1485C30.6656 28.7446 30.7472 30.4596 31.3736 32.0013C32 33.543 33.1325 34.8161 34.5781 35.6034C36.0236 36.3908 37.6928 36.6437 39.3012 36.3192C40.9096 35.9947 42.3576 35.1127 43.3984 33.8237C44.4393 32.5347 45.0086 30.9183 45.0093 29.25C45.0155 28.3027 44.8374 27.3636 44.4854 26.4866C44.1334 25.6097 43.6144 24.8122 42.9583 24.1401L42.9385 24.1535Z" fill="#212463"/>
</g>
<defs>
<clipPath id="clip0">
<rect width="34" height="39" fill="white" transform="translate(23 20)"/>
</clipPath>
</defs>
</svg>
