<svg width="80" height="80" viewBox="0 0 80 80" fill="none" xmlns="http://www.w3.org/2000/svg">
<circle cx="40" cy="40" r="39" stroke="#212463" stroke-width="2"/>
<g clip-path="url(#clip0)">
<path d="M22.997 23.4011H28.8326V22.0496C28.8212 21.9105 28.8391 21.7706 28.8852 21.6387C28.9313 21.5068 29.0046 21.3858 29.1005 21.2832C29.1963 21.1807 29.3126 21.0989 29.4421 21.0429C29.5716 20.9869 29.7114 20.958 29.8528 20.958C29.9942 20.958 30.134 20.9869 30.2635 21.0429C30.3929 21.0989 30.5093 21.1807 30.6051 21.2832C30.701 21.3858 30.7743 21.5068 30.8204 21.6387C30.8665 21.7706 30.8844 21.9105 30.873 22.0496V23.4207H48.1072V22.0496C48.0958 21.9105 48.1137 21.7706 48.1598 21.6387C48.2059 21.5068 48.2792 21.3858 48.3751 21.2832C48.4709 21.1807 48.5872 21.0989 48.7167 21.0429C48.8462 20.9869 48.986 20.958 49.1274 20.958C49.2687 20.958 49.4086 20.9869 49.5381 21.0429C49.6675 21.0989 49.7839 21.1807 49.8797 21.2832C49.9756 21.3858 50.0489 21.5068 50.095 21.6387C50.1411 21.7706 50.159 21.9105 50.1476 22.0496V23.4207H56.0097C56.1444 23.4215 56.2775 23.449 56.4012 23.5016C56.5249 23.5543 56.6365 23.6309 56.7295 23.727C56.8226 23.8231 56.895 23.9367 56.9427 24.061C56.9903 24.1853 57.0121 24.3179 57.0067 24.4507V56.9831C57.0121 57.1159 56.9903 57.2485 56.9427 57.3728C56.895 57.4971 56.8226 57.6107 56.7295 57.7068C56.6365 57.8029 56.5249 57.8795 56.4012 57.9322C56.2775 57.9848 56.1444 58.0123 56.0097 58.013H22.997C22.8626 58.0114 22.7299 57.9832 22.6067 57.9303C22.4835 57.8774 22.3722 57.8007 22.2793 57.7048C22.1865 57.6089 22.1139 57.4957 22.066 57.3717C22.018 57.2478 21.9956 57.1157 22.0001 56.9831V24.4507C21.9956 24.3181 22.018 24.186 22.066 24.0621C22.1139 23.9381 22.1865 23.8248 22.2793 23.7289C22.3722 23.633 22.4835 23.5563 22.6067 23.5034C22.7299 23.4505 22.8626 23.4223 22.997 23.4207V23.4011ZM34.4089 42.1962C34.8887 42.1967 35.3555 42.0424 35.7382 41.7567C36.0729 41.4493 36.2711 41.024 36.2897 40.5731C36.3084 40.1223 36.146 39.6824 35.8379 39.3491C35.6837 39.1917 35.4988 39.067 35.2943 38.9824C35.0897 38.8978 34.8699 38.8551 34.6482 38.857C34.359 38.845 34.0707 38.8965 33.8041 39.0079C33.5945 39.0969 33.4064 39.2288 33.2524 39.395C33.1005 39.5685 32.9833 39.7688 32.9068 39.9854C32.7606 40.2347 32.6609 40.4774 32.5612 40.6743C32.5376 40.7428 32.4984 40.805 32.4465 40.8562C32.3946 40.9074 32.3316 40.9461 32.2621 40.9694C32.1024 41.0285 31.9341 41.0618 31.7636 41.0679C31.5191 41.0652 31.2836 40.9769 31.099 40.8186C30.9334 40.6087 30.8444 40.3498 30.8464 40.0838C30.8414 39.7562 30.9288 39.4336 31.099 39.1522C31.3078 38.8134 31.5756 38.5136 31.8899 38.2666C32.2628 37.9591 32.6822 37.7112 33.1328 37.5319C33.6996 37.3742 34.2853 37.2925 34.8742 37.2891C35.3802 37.274 35.8853 37.3405 36.3696 37.486C36.7974 37.6443 37.1984 37.8655 37.5593 38.142C37.851 38.4356 38.1013 38.7666 38.3037 39.126C38.4604 39.4988 38.546 39.8968 38.5563 40.3003C38.5588 40.8186 38.4211 41.3281 38.1575 41.7763C37.8747 42.2064 37.5221 42.5876 37.114 42.9048C37.5232 43.1428 37.9063 43.422 38.2572 43.7379C38.5416 44.0175 38.7674 44.3497 38.9218 44.7154C39.077 45.0907 39.1604 45.491 39.1677 45.8962C39.1639 46.3998 39.0647 46.8981 38.8753 47.3657C38.6351 47.8525 38.3139 48.296 37.9249 48.6778C37.4965 49.0812 36.9888 49.3937 36.4332 49.5957C35.8776 49.7976 35.2859 49.8849 34.6947 49.8521C34.0655 49.8702 33.4397 49.7538 32.8603 49.5109C32.3511 49.3043 31.8965 48.9857 31.531 48.5793C31.2039 48.2666 30.9341 47.9005 30.7334 47.497C30.5631 47.1964 30.4611 46.8629 30.4344 46.5195C30.4453 46.2222 30.5714 45.9404 30.7866 45.7322C30.8913 45.6307 31.0163 45.5521 31.1537 45.5013C31.2911 45.4504 31.4377 45.4285 31.5842 45.437C31.7438 45.4404 31.8989 45.4907 32.0295 45.5813C32.1681 45.6582 32.2742 45.7816 32.3286 45.929C32.5365 46.5531 32.8561 47.1352 33.2724 47.6478C33.4451 47.8386 33.6607 47.9867 33.902 48.0801C34.1433 48.1736 34.4034 48.2097 34.6615 48.1857C35.0259 48.1984 35.3868 48.1122 35.705 47.9365C36.0394 47.776 36.3173 47.52 36.5025 47.2017C36.706 46.8434 36.8092 46.4382 36.8016 46.0275C36.8249 45.7502 36.7884 45.4711 36.6945 45.2087C36.6005 44.9464 36.4513 44.7067 36.2566 44.5054C36.0632 44.3122 35.8287 44.1637 35.5701 44.0707C35.3115 43.9777 35.0352 43.9425 34.7612 43.9675H34.2162C34.0702 44.0009 33.9206 44.0163 33.7708 44.0134C33.5153 44.0239 33.2654 43.937 33.073 43.7707C32.978 43.6917 32.9054 43.5897 32.8623 43.4747C32.8192 43.3597 32.807 43.2357 32.8271 43.1147C32.8197 42.9903 32.8424 42.8659 32.8933 42.7519C32.9441 42.6378 33.0216 42.5373 33.1195 42.4586C33.385 42.286 33.6992 42.201 34.0168 42.2159L34.4089 42.1962ZM44.8504 48.4285V40.8186C43.4082 41.9469 42.4644 42.4915 41.9659 42.4915C41.8401 42.4921 41.7157 42.4661 41.601 42.4151C41.4864 42.3642 41.3841 42.2896 41.3012 42.1962C41.213 42.1121 41.1451 42.0095 41.1025 41.8959C41.0599 41.7823 41.0438 41.6607 41.0553 41.5402C41.0353 41.4192 41.0474 41.2951 41.0905 41.1801C41.1336 41.0651 41.2062 40.9631 41.3012 40.8841C41.6061 40.6888 41.9212 40.5092 42.245 40.3462C42.8413 40.1056 43.3954 39.7735 43.8867 39.3622C44.3025 39.0196 44.6712 38.6248 44.9834 38.1879C45.1754 37.9025 45.3983 37.6386 45.648 37.4007C45.6945 37.3023 45.8939 37.2564 46.1465 37.2564C46.289 37.2512 46.4308 37.2794 46.5602 37.3387C46.6895 37.398 46.8029 37.4866 46.8909 37.5974C47.0895 37.866 47.1774 38.199 47.1368 38.529V48.1005C47.1368 49.2288 46.7912 49.7668 45.9936 49.7668C45.8364 49.7731 45.6796 49.7458 45.5339 49.687C45.3883 49.6281 45.2572 49.539 45.1495 49.4256C44.9339 49.126 44.8284 48.7626 44.8504 48.3957V48.4285ZM46.9573 26.1957C47.2828 25.8754 47.6721 25.6252 48.1005 25.4609V25.415H30.8996V25.4609C31.328 25.6252 31.7173 25.8754 32.0428 26.1957C32.3271 26.4759 32.5527 26.8088 32.7067 27.1752C32.8606 27.5416 32.9398 27.9344 32.9398 28.331C32.9398 28.7277 32.8606 29.1204 32.7067 29.4869C32.5527 29.8533 32.3271 30.1861 32.0428 30.4664C31.7554 30.749 31.4143 30.9728 31.039 31.1248C30.6638 31.2768 30.2617 31.354 29.8561 31.3521C29.4574 31.3538 29.0625 31.2762 28.6948 31.124C28.3271 30.9719 27.9943 30.7482 27.716 30.4664C27.4182 30.1938 27.1807 29.8634 27.0183 29.496C26.8558 29.1286 26.772 28.7319 26.772 28.331C26.772 27.9301 26.8558 27.5336 27.0183 27.1662C27.1807 26.7987 27.4182 26.4683 27.716 26.1957C28.0246 25.8554 28.419 25.6018 28.8592 25.4609V25.415H24.0405V55.9859H54.9596V25.415H50.141V25.4609C50.5811 25.6018 50.9755 25.8554 51.2841 26.1957C51.8552 26.7634 52.1757 27.531 52.1757 28.331C52.1757 29.1311 51.8552 29.8987 51.2841 30.4664C50.7104 31.0328 49.9322 31.3509 49.1207 31.3509C48.3093 31.3509 47.5311 31.0328 46.9573 30.4664C46.3836 29.9001 46.0612 29.132 46.0612 28.331C46.0612 27.5301 46.3836 26.762 46.9573 26.1957ZM48.2534 27.8161C48.1585 27.9636 48.1057 28.1335 48.1005 28.3081C48.0978 28.4441 48.1229 28.5792 48.1744 28.7054C48.2259 28.8316 48.3027 28.9462 48.4001 29.0424C48.4975 29.1386 48.6137 29.2143 48.7415 29.2651C48.8693 29.3159 49.0062 29.3407 49.144 29.3381C49.2744 29.3373 49.4033 29.3108 49.5232 29.2601C49.643 29.2094 49.7514 29.1356 49.8419 29.0429C49.9399 28.9471 50.017 28.8324 50.0685 28.7061C50.1199 28.5797 50.1446 28.4443 50.141 28.3081C50.1358 28.1335 50.083 27.9636 49.9881 27.8161C49.9054 27.9656 49.7833 28.0903 49.6347 28.1769C49.4861 28.2635 49.3166 28.3089 49.144 28.3081C48.9639 28.3159 48.7852 28.2739 48.6279 28.187C48.4706 28.1001 48.3409 27.9717 48.2534 27.8161ZM28.9788 27.8161C28.924 27.9751 28.8905 28.1405 28.8791 28.3081C28.8755 28.4443 28.9001 28.5797 28.9516 28.7061C29.003 28.8324 29.0801 28.9471 29.1782 29.0429C29.3537 29.2211 29.5913 29.3266 29.8428 29.3381C29.9808 29.3416 30.118 29.3173 30.246 29.2666C30.374 29.2158 30.4901 29.1397 30.5872 29.0429C30.6853 28.9471 30.7624 28.8324 30.8138 28.7061C30.8653 28.5797 30.8899 28.4443 30.8863 28.3081C30.8834 28.1341 30.8329 27.9641 30.7401 27.8161C30.6503 27.9712 30.5193 28.099 30.3611 28.1858C30.2029 28.2725 30.0237 28.3149 29.8428 28.3081C29.6643 28.3029 29.4896 28.2555 29.3335 28.1699C29.1774 28.0843 29.0443 27.963 28.9456 27.8161H28.9788Z" fill="#212463"/>
</g>
<defs>
<clipPath id="clip0">
<rect width="35" height="37" fill="white" transform="translate(22 21)"/>
</clipPath>
</defs>
</svg>
